<svg xmlns="http://www.w3.org/2000/svg" width="297" height="376" fill="none" viewBox="0 0 297 376">
<path fill="#000" d="m97.5 374.5-13-9c7.333-10.5 22.8-34 26-44 4-9 12.4-29.9 14-41.5 2-7 5.8-21.3 5-22.5-1.667-.5-5.3-4.9-6.5-18.5-6-2.833-18.2-8.9-19-10.5-2.333 4.833-8.9 15.3-16.5 18.5-6.333 4.333-19.5 14.3-21.5 19.5-3.333 5.333-12.2 17-21 21 2.833-2.333 8.7-10.1 9.5-22.5.333-4.333.6-13.3-1-14.5-1.833-6.833-4.5-23.1-.5-33.5 1-3 4.2-10.5 9-16.5-1-1.5-3.8-4.5-7-4.5-5.333.167-16.2.3-17-.5-1-1-9-1-12-5.5-3.833-4.167-11.7-14.6-12.5-23-1.167-.833-3.7-3.5-4.5-7.5-.333-1.5-1.1-5.4-1.5-9-1-3.5-3.5-10.6-5.5-11C.667 135.333-.9 126 3.5 122c2.333-2.667 7.3-9 8.5-13 1-4.167 2.8-13 2-15 0-3 .9-9.9 4.5-13.5 2.5-1.5 7.3-5 6.5-7 0-1.333-1.5-5.2-7.5-10 6.667-1.333 21.4-3.6 27-2 1.667-2.333 6.2-7.2 11-8-1-6.5.7-20.7 15.5-25.5 4.5.333 15.5.5 23.5-1.5 3.167-4 11.2-12.6 18-15 4-2.167 15.5-5.7 29.5-2.5 17.5 4 30.5 18.5 31 20 1.167-3.5 5.3-11.3 12.5-14.5 6-3 18.6-10 21-14-3.833 5-9.9 18.6-3.5 33 6.333-1.333 21.8-.6 33 13 5.333 6.667 17.4 20.7 23 23.5 3.667 3 11.5 10.5 13.5 16.5-.167 6.667-1.7 21.8-6.5 29-.333 2.5-.5 8 1.5 10 .5 4 1.2 12.2 0 13-1.167 2.167-5.1 7.3-11.5 10.5 6.667 3.333 20.8 12.3 24 21.5.167 2 3.7 8.2 16.5 17-6.833-1.667-23.8-2.1-37 9.5-3.833.833-13.1 1.3-19.5-3.5 1 6.333.6 19.8-9 23-4 1.167-12.7 6.1-15.5 16.5-2.333 5-12.5 14.4-34.5 12-3.167-1.5-10-4.2-12-3 1.167 6.167.8 19.7-10 24.5-2.5.333-7.6 3.9-8 15.5-.5-4.833-2.3-14.1-5.5-12.5-1.167.333-4.4 6.9-8 30.5 12.167-7.5 45.3-23.3 80.5-26.5 13.833-.833 43.9-4.7 53.5-13.5-8 34.333-43.3 102.6-120.5 101-7.052.167-24.125-1.5-36-9.5l-17.5 23Z"/>
<path fill="#fff" d="M258.5 136c-2.8 7.2-16.833 10.333-23.5 11-.8-2.8-4-6.5-5.5-8-2-8-17.167-13-24.5-14.5-9.2 0-14.167-2.667-15.5-4-1.6-2.4-8.333-5-11.5-6-4.4 0-10.833-1.667-13.5-2.5-5.6-1.2-9.333-4.833-10.5-6.5 1.6-1.6 3.667-8.667 4.5-12 0-4.4 1.667-8.167 2.5-9.5.8-3.2 6-6.667 8.5-8 6-2.4 8.167-4.667 8.5-5.5 4-1.2 7-8.833 8-12.5.8-3.2 6.667-9.667 9.5-12.5 12-8.8 23-4.333 27-1 1.2.4 5.833 4.833 8 7 1.2.4 5.5 5.833 7.5 8.5-.4 2 11.167 12.167 17 17 5.6 2.4 9.333 9.333 10.5 12.5 1 2 .5 7 0 7-.4 0-1.833 3.667-2.5 5.5.833-.833 2-1.9 0 .5s-3.5 8.333-4 11c-3 1.5-1.5 11-.5 11 .8 0 .333 7.667 0 11.5Z"/>
<path fill="#fff" d="M212.41 221.847c-5.2 18.8-20.91 18-28.91 15l-4-.347-4.59-.653-6.5-.5c-9.5-.5-25.833-.667-34-1.5-13.5-1.378-22.5-9-26.5-12.5 0-3.5 0-14-2.5-20.5-7.5-8.5-3.5-11.5-5-12.5-1.664-1.11-5-10.167-6-15.5-2.5-13.334 7-23 13-27 5-4.5 14.5-16.5 19.5-22 3.5-9.5 22.345-14.174 25.59-9.847 3 4 19.5 7.5 28.5 8.5 5 7.5 18.5 8.5 24.91 9.847C224 137.5 228 148 228.5 152.5v28l1.41 7.847c6.09 14.153.834 21.833-3.5 23.5-8 2-12.666 7.5-14 10ZM139 107c-8.4.4-13.5 4.167-15 6-1.2-6.8-8.833-10.833-12.5-12-4.4-2.4-13.833-2.667-18-2.5-5.5-1.5-5.663-9.775-12-14-1.5-1-9.333-1.667-14-2-1.2-3.6-12.5-8.167-18-10 1.2-9.6 9.833-13.667 14-14.5l-.5-9.5c.4-6.8 6.833-11.5 10-13 1.2.8 13.167-.333 19-1 6.8.4 14.833-8.167 18-12.5 2.8-4 7.833-5.667 10-6 1.6-1.6 11.667-1.333 16.5-1 11.2 1.2 23.667 11.833 28.5 17-1.2 2 11.5 11.833 18 16.5-2.8 8.4-9.167 15.833-12 18.5-8 2.4-14 9-16 12-4 5.6-6.333 17-7 22 .8 4-5.667 5.667-9 6Z"/>
<path fill="#fff" d="M87.5 158c-.83 2.076-1 13 0 18.5l5 12.5 1.5 7v4c-4 2-6.5 1.5-9.5 1-1.5-2-18-6.5-24-10.5-6-2.8-18.5-4-24-3-5-1-12-9.833-14.5-14-2-3.5-1.728-5.951-1.5-8 .5-4.5-3.5-6-4.5-10.5.5-5-3.5-15-6.5-17.5-2.4-2.8-1.667-7.167-1-9-.4-3.2 4.5-9 7-11.5 2.5-1 4.5-5.5 4.5-8 1.5-2 0-9 .5-13.5-.4-4.8 2.167-9 3.5-10.5 1.6-2 6.5-4 10-4 4.5-1.5 13-1.2 17 0 8 2.4 12.667 7 14 9 0 .4 1.5 1.5 3 1.5 4.5-1.5 8.5-1.5 10-1 1.138.38 3 1.5 3.5 3.5 0 5.5 5 10 9 11.5s12.5.13 17 1.5c9.2 2.8 10.833 10.167 10.5 13.5-.8 3.6-13.167 16.5-19.5 22.5-8 4.5-10 12.5-11 15Z"/>
</svg>