<svg xmlns="http://www.w3.org/2000/svg" width="1007" height="376" fill="none">
<defs><style>.cls-2{fill:#fff}</style></defs>
<path style="fill:#424649" d="m97.9 375-13-9c7.333-10.5 22.8-34 26-44 4-9 12.4-29.9 14-41.5 2-7 5.8-21.3 5-22.5-1.667-.5-5.3-4.9-6.5-18.5-6-2.833-18.2-8.9-19-10.5-2.333 4.833-8.9 15.3-16.5 18.5-6.333 4.333-19.5 14.3-21.5 19.5-3.333 5.333-12.2 17-21 21 2.833-2.333 8.7-10.1 9.5-22.5.333-4.333.6-13.3-1-14.5-1.833-6.833-4.5-23.1-.5-33.5 1-3 4.2-10.5 9-16.5-1-1.5-3.8-4.5-7-4.5-5.333.167-16.2.3-17-.5-1-1-9-1-12-5.5-3.833-4.167-11.7-14.6-12.5-23-1.167-.833-3.7-3.5-4.5-7.5-.333-1.5-1.1-5.4-1.5-9-1-3.5-3.5-10.6-5.5-11-1.333-4.167-2.9-13.5 1.5-17.5 2.333-2.667 7.3-9 8.5-13 1-4.167 2.8-13 2-15 0-3 .9-9.9 4.5-13.5 2.5-1.5 7.3-5 6.5-7 0-1.333-1.5-5.2-7.5-10 6.667-1.333 21.4-3.6 27-2 1.667-2.333 6.2-7.2 11-8-1-6.5.7-20.7 15.5-25.5 4.5.333 15.5.5 23.5-1.5 3.167-4 11.2-12.6 18-15 4-2.167 15.5-5.7 29.5-2.5 17.5 4 30.5 18.5 31 20 1.167-3.5 5.3-11.3 12.5-14.5 6-3 18.6-10 21-14-3.833 5-9.9 18.6-3.5 33 6.333-1.333 21.8-.6 33 13 5.333 6.667 17.4 20.7 23 23.5 3.667 3 11.5 10.5 13.5 16.5-.167 6.667-1.7 21.8-6.5 29-.333 2.5-.5 8 1.5 10 .5 4 1.2 12.2 0 13-1.167 2.167-5.1 7.3-11.5 10.5 6.667 3.333 20.8 12.3 24 21.5.167 2 3.7 8.2 16.5 17-6.833-1.667-23.8-2.1-37 9.5-3.833.833-13.1 1.3-19.5-3.5 1 6.333.6 19.8-9 23-4 1.167-12.7 6.1-15.5 16.5-2.333 5-12.5 14.4-34.5 12-3.167-1.5-10-4.2-12-3 1.167 6.167.8 19.7-10 24.5-2.5.333-7.6 3.9-8 15.5-.5-4.833-2.3-14.1-5.5-12.5-1.167.333-4.4 6.9-8 30.5 12.167-7.5 45.3-23.3 80.5-26.5 13.833-.833 43.9-4.7 53.5-13.5-8 34.333-43.3 102.6-120.5 101-7.052.167-24.125-1.5-36-9.5l-17.5 23Z"/>
<path class="cls-2" d="M258.9 136.5c-2.8 7.2-16.833 10.333-23.5 11-.8-2.8-4-6.5-5.5-8-2-8-17.167-13-24.5-14.5-9.2 0-14.167-2.667-15.5-4-1.6-2.4-8.333-5-11.5-6-4.4 0-10.833-1.667-13.5-2.5-5.6-1.2-9.333-4.833-10.5-6.5 1.6-1.6 3.667-8.667 4.5-12 0-4.4 1.667-8.167 2.5-9.5.8-3.2 6-6.667 8.5-8 6-2.4 8.167-4.667 8.5-5.5 4-1.2 7-8.833 8-12.5.8-3.2 6.667-9.667 9.5-12.5 12-8.8 23-4.333 27-1 1.2.4 5.833 4.833 8 7 1.2.4 5.5 5.833 7.5 8.5-.4 2 11.167 12.167 17 17 5.6 2.4 9.333 9.333 10.5 12.5 1 2 .5 7 0 7-.4 0-1.833 3.667-2.5 5.5.833-.833 2-1.9 0 .5s-3.5 8.333-4 11c-3 1.5-1.5 11-.5 11 .8 0 .333 7.667 0 11.5Z"/>
<path class="cls-2" d="M212.81 222.347c-5.2 18.8-20.91 18-28.91 15l-4-.347-4.59-.653-6.5-.5c-9.5-.5-25.833-.667-34-1.5-13.5-1.378-22.5-9-26.5-12.5 0-3.5 0-14-2.5-20.5-7.5-8.5-3.5-11.5-5-12.5-1.664-1.11-5-10.167-6-15.5-2.5-13.334 7-23 13-27 5-4.5 14.5-16.5 19.5-22 3.5-9.5 22.345-14.174 25.59-9.847 3 4 19.5 7.5 28.5 8.5 5 7.5 18.5 8.5 24.91 9.847C224.4 138 228.4 148.5 228.9 153v28l1.41 7.847c6.09 14.153.834 21.833-3.5 23.5-8 2-12.666 7.5-14 10ZM139.4 107.5c-8.4.4-13.5 4.167-15 6-1.2-6.8-8.833-10.833-12.5-12-4.4-2.4-13.833-2.667-18-2.5-5.5-1.5-5.663-9.775-12-14-1.5-1-9.333-1.667-14-2-1.2-3.6-12.5-8.167-18-10 1.2-9.6 9.833-13.667 14-14.5l-.5-9.5c.4-6.8 6.833-11.5 10-13 1.2.8 13.167-.333 19-1 6.8.4 14.833-8.167 18-12.5 2.8-4 7.833-5.667 10-6 1.6-1.6 11.667-1.333 16.5-1 11.2 1.2 23.667 11.833 28.5 17-1.2 2 11.5 11.833 18 16.5-2.8 8.4-9.167 15.833-12 18.5-8 2.4-14 9-16 12-4 5.6-6.333 17-7 22 .8 4-5.667 5.667-9 6Z"/>
<path class="cls-2" d="M87.9 158.5c-.83 2.076-1 13 0 18.5l5 12.5 1.5 7v4c-4 2-6.5 1.5-9.5 1-1.5-2-18-6.5-24-10.5-6-2.8-18.5-4-24-3-5-1-12-9.833-14.5-14-2-3.5-1.728-5.951-1.5-8 .5-4.5-3.5-6-4.5-10.5.5-5-3.5-15-6.5-17.5-2.4-2.8-1.667-7.167-1-9-.4-3.2 4.5-9 7-11.5 2.5-1 4.5-5.5 4.5-8 1.5-2 0-9 .5-13.5-.4-4.8 2.167-9 3.5-10.5 1.6-2 6.5-4 10-4 4.5-1.5 13-1.2 17 0 8 2.4 12.667 7 14 9 0 .4 1.5 1.5 3 1.5 4.5-1.5 8.5-1.5 10-1 1.138.38 3 1.5 3.5 3.5 0 5.5 5 10 9 11.5s12.5.13 17 1.5c9.2 2.8 10.833 10.167 10.5 13.5-.8 3.6-13.167 16.5-19.5 22.5-8 4.5-10 12.5-11 15Z"/>
<path fill="#fff" d="M297.206 316a79.351 79.351 0 0 1 0-11.435c3.838-.715 6.923-1.549 9.254-2.501 2.33-.953 4.318-2.621 5.963-5.003 1.646-2.621 3.222-6.432 4.73-11.435 1.508-5.241 3.291-12.507 5.347-21.798l44.42-197.97c1.508-.952 3.29-1.667 5.347-2.143 2.193-.477 4.044-.715 5.552-.715l44.214 204.044c1.919 8.576 3.496 15.366 4.73 20.368 1.234 4.765 2.605 8.219 4.113 10.363 1.508 2.144 3.427 3.693 5.758 4.646 2.33.715 5.552 1.429 9.665 2.144a79.64 79.64 0 0 1 0 11.435c-4.798 0-9.734-.119-14.806-.357a323.34 323.34 0 0 0-15.218-.358c-5.21 0-10.488.119-15.835.358-5.21.238-10.419.357-15.629.357-.411-3.573-.411-7.385 0-11.435 6.718-1.191 11.379-2.263 13.984-3.216 2.605-1.191 3.907-4.05 3.907-8.576 0-1.906-.205-4.05-.617-6.433a497.14 497.14 0 0 0-1.645-8.933l-11.722-55.031h-46.27l-10.282 49.313c-.96 4.527-1.714 8.338-2.263 11.435-.411 2.859-.617 5.48-.617 7.862 0 5.241 1.371 8.576 4.113 10.006 2.879 1.191 7.541 2.382 13.984 3.573.275 4.05.275 7.862 0 11.435-4.661 0-9.254-.119-13.778-.357a261.171 261.171 0 0 0-13.778-.358c-3.839 0-7.541.119-11.105.358-3.565.238-7.403.357-11.516.357Zm48.327-108.633h40.101l-20.154-95.053-19.947 95.053ZM480.994 65.859c4.25 0 9.117-.12 14.601-.358s10.008-.357 13.572-.357c27.009 0 47.436 10.006 61.283 30.017 13.847 20.011 20.77 49.194 20.77 87.549 0 28.112-3.564 52.173-10.693 72.184-6.992 19.773-16.726 34.901-29.202 45.383C538.849 310.759 524.522 316 508.345 316c-1.919 0-4.593-.119-8.02-.357h-10.488c-3.565-.239-6.581-.358-9.049-.358-2.193 0-5.278.119-9.254.358h-12.133c-4.113.238-7.54.357-10.282.357-.274-3.573-.274-7.385 0-11.435 6.443-1.191 11.036-2.263 13.778-3.216 2.742-1.191 4.456-3.574 5.141-7.147.686-3.573 1.028-9.648 1.028-18.225V109.812c0-10.005-.342-17.152-1.028-21.44-.685-4.289-2.468-7.028-5.347-8.22-2.742-1.429-7.266-2.62-13.572-3.573-.274-3.573-.274-7.385 0-11.435 2.879 0 6.306.12 10.282.357 3.976 0 7.883.12 11.722.358h9.871Zm10.694 15.723V286.34c0 4.05.068 7.386.205 10.006 6.581 3.335 13.367 5.003 20.359 5.003 11.928 0 21.867-4.884 29.819-14.651 8.089-9.768 14.121-23.109 18.097-40.023 4.113-16.914 6.169-36.092 6.169-57.532 0-33.353-4.935-59.915-14.806-79.688-9.734-19.773-24.198-29.66-43.392-29.66-3.427 0-6.718.238-9.871.715-3.016.476-5.21.834-6.58 1.072ZM608.374 316c-.274-3.573-.274-7.385 0-11.435 6.444-1.191 11.036-2.263 13.778-3.216 2.742-1.191 4.456-3.574 5.142-7.147.685-3.812 1.028-9.887 1.028-18.225V109.812c0-10.005-.343-17.152-1.028-21.44-.686-4.289-2.468-7.028-5.347-8.22-2.742-1.429-7.266-2.62-13.573-3.573-.274-3.573-.274-7.385 0-11.435 2.879 0 6.238.12 10.077.357 3.976 0 7.883.12 11.722.358h19.125c3.975-.238 7.951-.358 11.927-.358 4.113-.238 7.472-.357 10.077-.357.411 3.573.411 7.385 0 11.435-6.444.953-11.105 2.025-13.984 3.216-2.879 1.191-4.661 3.574-5.347 7.147-.685 3.574-1.028 9.648-1.028 18.225v185.819c.137 4.764.274 7.981.411 9.648h29.202c11.379 0 19.81-4.407 25.294-13.222 4.525-7.623 9.254-20.964 14.19-40.022 2.194-.715 4.319-.715 6.375 0-1.645 14.532-3.016 27.634-4.113 39.308a9131.612 9131.612 0 0 1-2.468 28.945h-39.895a2185.98 2185.98 0 0 0-39.69-.358c-2.605 0-5.895.119-9.871.358h-11.927c-3.976.238-7.335.357-10.077.357Zm126.32 0c-.274-3.573-.274-7.385 0-11.435 6.443-1.191 11.036-2.263 13.778-3.216 2.742-1.191 4.456-3.574 5.141-7.147.686-3.812 1.029-9.887 1.029-18.225V109.812c0-10.005-.343-17.152-1.029-21.44-.685-4.289-2.467-7.028-5.346-8.22-2.742-1.429-7.267-2.62-13.573-3.573-.274-3.573-.274-7.385 0-11.435 3.564 0 6.649.12 9.254.357h8.226c2.742 0 6.032.12 9.871.358h45.036c9.46-.238 17.343-.358 23.65-.358 6.306-.238 10.008-.357 11.105-.357a2366.95 2366.95 0 0 0 1.85 27.158c.823 9.291 1.714 19.178 2.674 29.66-2.331.476-4.593.476-6.787 0-1.645-7.147-3.564-13.46-5.758-18.939-2.193-5.48-4.455-9.649-6.786-12.507-2.605-3.336-5.758-5.837-9.46-7.505-3.564-1.667-8.02-2.501-13.367-2.501h-26.939v97.555h11.31c6.581 0 11.585-.715 15.012-2.144 3.428-1.668 5.964-5.122 7.609-10.363 1.645-5.479 2.948-14.056 3.908-25.729 2.467-.715 4.798-.715 6.992 0-.138 14.294-.275 24.776-.412 31.446v32.519c.137 7.623.274 17.51.412 29.659-2.057.715-4.388.715-6.992 0-.823-12.626-2.057-21.679-3.702-27.158-1.645-5.479-4.113-8.933-7.403-10.363-3.154-1.429-7.678-2.144-13.573-2.144h-13.161v97.198c.137 4.764.274 7.861.411 9.291h28.173c6.855 0 12.339-.953 16.452-2.859 4.25-2.144 7.746-5.241 10.488-9.291 1.919-2.62 4.182-7.147 6.786-13.579 2.605-6.67 5.073-14.294 7.404-22.87 2.193-.476 4.318-.476 6.375 0-1.371 13.341-2.537 25.371-3.496 36.092-.96 10.72-1.783 20.011-2.468 27.873h-41.952c-7.266-.239-13.915-.358-19.948-.358h-14.189c-6.444 0-11.722.119-15.835.358h-10.693c-3.017.238-6.375.357-10.077.357Zm179.457-113.278-5.347-1.072v69.682c0 7.385.137 13.222.411 17.51.274 4.288.96 7.385 2.057 9.291 1.234 1.906 3.153 3.335 5.758 4.288 2.742.715 6.512 1.429 11.31 2.144a53.05 53.05 0 0 1 0 11.435c-2.742 0-6.032-.119-9.871-.357h-11.516c-3.839-.239-7.06-.358-9.665-.358-2.468 0-5.69.119-9.666.358h-11.927c-3.976.238-7.335.357-10.077.357-.411-3.573-.411-7.385 0-11.435 6.581-.953 11.311-1.906 14.19-2.859 2.879-1.191 4.661-3.573 5.347-7.147.685-3.811 1.028-10.005 1.028-18.582V109.455c0-9.768-.411-16.795-1.234-21.084-.686-4.288-2.468-7.146-5.347-8.576-2.879-1.43-7.54-2.501-13.984-3.216-.411-3.573-.411-7.385 0-11.435 2.605 0 5.964.12 10.077.357 4.25 0 8.363.12 12.339.358h18.508c3.976-.238 7.883-.477 11.722-.715 3.975-.238 7.06-.357 9.254-.357 8.637 0 16.657 2.025 24.06 6.075 7.541 4.05 13.573 10.72 18.097 20.01 4.662 9.054 6.992 21.322 6.992 36.807 0 15.247-2.673 28.826-8.02 40.738-5.21 11.911-13.504 20.845-24.883 26.801v1.072c2.056 2.858 4.387 7.623 6.992 14.293l21.593 54.317c3.564 8.814 6.512 15.723 8.842 20.726 2.468 5.003 4.799 8.814 6.992 11.435 2.194 2.382 4.73 4.05 7.609 5.003 2.879.952 6.508 1.786 10.898 2.501.41 3.812.41 7.623 0 11.435-2.6 0-5.83-.119-9.664-.357h-11.105c-3.564-.239-6.443-.358-8.637-.358-2.193 0-4.113.119-5.758.358h-5.758l-38.045-97.555c-2.33-6.194-4.387-10.125-6.169-11.793-1.782-1.906-4.25-3.097-7.403-3.573Zm-5.347-15.723c1.782.476 3.359.833 4.73 1.072a22.87 22.87 0 0 0 3.907.357c10.694 0 19.125-4.765 25.295-14.294 6.306-9.529 9.459-23.585 9.459-42.166 0-16.915-2.742-29.898-8.226-38.951-5.346-9.053-13.298-13.58-23.855-13.58-1.371 0-3.084.12-5.141.358a69.537 69.537 0 0 0-6.169 1.072V187Z"/>
</svg>