<svg width="944" height="376" viewBox="0 0 944 376" fill="black" xmlns="http://www.w3.org/2000/svg"><defs><style>.cls-1{fill:#424649}.cls-2{fill:#fff}</style></defs>
<path class="bg-black" d="M97.9001 375L84.9001 366C92.2334 355.5 107.7 332 110.9 322C114.9 313 123.3 292.1 124.9 280.5C126.9 273.5 130.7 259.2 129.9 258C128.233 257.5 124.6 253.1 123.4 239.5C117.4 236.667 105.2 230.6 104.4 229C102.067 233.833 95.5001 244.3 87.9001 247.5C81.5667 251.833 68.4001 261.8 66.4001 267C63.0667 272.333 54.2001 284 45.4001 288C48.2334 285.667 54.1001 277.9 54.9001 265.5C55.2334 261.167 55.5001 252.2 53.9001 251C52.0667 244.167 49.4001 227.9 53.4001 217.5C54.4001 214.5 57.6001 207 62.4001 201C61.4001 199.5 58.6001 196.5 55.4001 196.5C50.0667 196.667 39.2001 196.8 38.4001 196C37.4001 195 29.4001 195 26.4001 190.5C22.5667 186.333 14.7001 175.9 13.9001 167.5C12.7334 166.667 10.2001 164 9.40007 160C9.06674 158.5 8.30007 154.6 7.90007 151C6.90007 147.5 4.40007 140.4 2.40007 140C1.06674 135.833 -0.499928 126.5 3.90007 122.5C6.23341 119.833 11.2001 113.5 12.4001 109.5C13.4001 105.333 15.2001 96.5 14.4001 94.5C14.4001 91.5 15.3001 84.6 18.9001 81C21.4001 79.5 26.2001 76 25.4001 74C25.4001 72.6667 23.9001 68.8 17.9001 64C24.5668 62.6667 39.3001 60.4 44.9001 62C46.5668 59.6667 51.1001 54.8 55.9001 54C54.9001 47.5 56.6001 33.3 71.4001 28.5C75.9001 28.8333 86.9001 29 94.9001 27C98.0668 23 106.1 14.4 112.9 12C116.9 9.83333 128.4 6.29999 142.4 9.49999C159.9 13.5 172.9 28 173.4 29.5C174.567 26 178.7 18.2 185.9 15C191.9 12 204.5 5 206.9 1C203.067 6 197 19.6 203.4 34C209.733 32.6667 225.2 33.4 236.4 47C241.733 53.6667 253.8 67.7 259.4 70.5C263.067 73.5 270.9 81 272.9 87C272.733 93.6667 271.2 108.8 266.4 116C266.067 118.5 265.9 124 267.9 126C268.4 130 269.1 138.2 267.9 139C266.733 141.167 262.8 146.3 256.4 149.5C263.067 152.833 277.2 161.8 280.4 171C280.567 173 284.1 179.2 296.9 188C290.067 186.333 273.1 185.9 259.9 197.5C256.067 198.333 246.8 198.8 240.4 194C241.4 200.333 241 213.8 231.4 217C227.4 218.167 218.7 223.1 215.9 233.5C213.567 238.5 203.4 247.9 181.4 245.5C178.233 244 171.4 241.3 169.4 242.5C170.567 248.667 170.2 262.2 159.4 267C156.9 267.333 151.8 270.9 151.4 282.5C150.9 277.667 149.1 268.4 145.9 270C144.733 270.333 141.5 276.9 137.9 300.5C150.067 293 183.2 277.2 218.4 274C232.233 273.167 262.3 269.3 271.9 260.5C263.9 294.833 228.6 363.1 151.4 361.5C144.348 361.667 127.275 360 115.4 352L97.9001 375Z"/>
<path class="cls-2" d="M258.9 136.5C256.1 143.7 242.067 146.833 235.4 147.5C234.6 144.7 231.4 141 229.9 139.5C227.9 131.5 212.733 126.5 205.4 125C196.2 125 191.233 122.333 189.9 121C188.3 118.6 181.567 116 178.4 115C174 115 167.567 113.333 164.9 112.5C159.3 111.3 155.567 107.667 154.4 106C156 104.4 158.067 97.3333 158.9 94C158.9 89.6 160.567 85.8333 161.4 84.5C162.2 81.3 167.4 77.8333 169.9 76.5C175.9 74.1 178.067 71.8333 178.4 71C182.4 69.8 185.4 62.1667 186.4 58.5C187.2 55.3 193.067 48.8333 195.9 46C207.9 37.2 218.9 41.6667 222.9 45C224.1 45.4 228.733 49.8333 230.9 52C232.1 52.4 236.4 57.8333 238.4 60.5C238 62.5 249.567 72.6667 255.4 77.5C261 79.9 264.733 86.8333 265.9 90C266.9 92 266.4 97 265.9 97C265.5 97 264.067 100.667 263.4 102.5C264.233 101.667 265.4 100.6 263.4 103C261.4 105.4 259.9 111.333 259.4 114C256.4 115.5 257.9 125 258.9 125C259.7 125 259.233 132.667 258.9 136.5Z" stroke="white"/>
<path class="cls-2" d="M212.81 222.347C207.61 241.147 191.9 240.347 183.9 237.347L179.9 237L175.31 236.347L168.81 235.847C159.31 235.347 142.977 235.18 134.81 234.347C121.31 232.969 112.31 225.347 108.31 221.847C108.31 218.347 108.31 207.847 105.81 201.347C98.3103 192.847 102.31 189.847 100.81 188.847C99.1462 187.737 95.8103 178.68 94.8103 173.347C92.3103 160.013 101.81 150.347 107.81 146.347C112.81 141.847 122.31 129.847 127.31 124.347C130.81 114.847 149.655 110.173 152.9 114.5C155.9 118.5 172.4 122 181.4 123C186.4 130.5 199.9 131.5 206.31 132.847C224.4 138 228.4 148.5 228.9 153V171V181L230.31 188.847C236.4 203 231.144 210.68 226.81 212.347C218.81 214.347 214.144 219.847 212.81 222.347Z" stroke="white"/>
<path class="cls-2" d="M139.4 107.5C131 107.9 125.9 111.667 124.4 113.5C123.2 106.7 115.567 102.667 111.9 101.5C107.5 99.1 98.0667 98.8333 93.9001 99C88.4001 97.5 88.2368 89.2245 81.9001 85C80.4001 84 72.5667 83.3333 67.9001 83C66.7001 79.4 55.4001 74.8333 49.9001 73C51.1001 63.4 59.7334 59.3333 63.9001 58.5L63.4001 49C63.8001 42.2 70.2334 37.5 73.4001 36C74.6001 36.8 86.5667 35.6667 92.4001 35C99.2001 35.4 107.233 26.8333 110.4 22.5C113.2 18.5 118.233 16.8333 120.4 16.5C122 14.9 132.067 15.1667 136.9 15.5C148.1 16.7 160.567 27.3333 165.4 32.5C164.2 34.5 176.9 44.3333 183.4 49C180.6 57.4 174.233 64.8333 171.4 67.5C163.4 69.9 157.4 76.5 155.4 79.5C151.4 85.1 149.067 96.5 148.4 101.5C149.2 105.5 142.733 107.167 139.4 107.5Z" stroke="white"/>
<path class="cls-2" d="M87.9001 158.5C87.0696 160.576 86.9001 171.5 87.9001 177L92.9001 189.5L94.4001 196.5V200.5C90.4001 202.5 87.9001 202 84.9001 201.5C83.4001 199.5 66.9001 195 60.9001 191C54.9001 188.2 42.4001 187 36.9001 188C31.9001 187 24.9001 178.167 22.4001 174C20.4001 170.5 20.6724 168.049 20.9001 166C21.4001 161.5 17.4001 160 16.4001 155.5C16.9001 150.5 12.9001 140.5 9.90007 138C7.50007 135.2 8.23341 130.833 8.90007 129C8.50007 125.8 13.4001 120 15.9001 117.5C18.4001 116.5 20.4001 112 20.4001 109.5C21.9001 107.5 20.4001 100.5 20.9001 96C20.5001 91.2 23.0667 87 24.4001 85.5C26.0001 83.5 30.9001 81.5 34.4001 81.5C38.9001 80 47.4001 80.3 51.4001 81.5C59.4001 83.9 64.0667 88.5 65.4001 90.5C65.4001 90.9 66.9001 92 68.4001 92C72.9001 90.5 76.9001 90.5 78.4001 91C79.5385 91.3795 81.4001 92.5 81.9001 94.5C81.9001 100 86.9001 104.5 90.9001 106C94.9001 107.5 103.4 106.13 107.9 107.5C117.1 110.3 118.733 117.667 118.4 121C117.6 124.6 105.233 137.5 98.9001 143.5C90.9001 148 88.9001 156 87.9001 158.5Z" stroke="white"/>
<path d="M322.14 255.18C321.9 253.26 321.9 251.34 322.14 249.42C325.5 249.06 328.2 248.64 330.24 248.16C332.28 247.68 334.02 246.84 335.46 245.64C336.9 244.32 338.28 242.4 339.6 239.88C340.92 237.24 342.48 233.58 344.28 228.9L383.16 129.18C384.48 128.7 386.04 128.34 387.84 128.1C389.76 127.86 391.38 127.74 392.7 127.74L431.4 230.52C433.08 234.84 434.46 238.26 435.54 240.78C436.62 243.18 437.82 244.92 439.14 246C440.46 247.08 442.14 247.86 444.18 248.34C446.22 248.7 449.04 249.06 452.64 249.42C452.88 251.34 452.88 253.26 452.64 255.18C448.44 255.18 444.12 255.12 439.68 255C435.24 254.88 430.8 254.82 426.36 254.82C421.8 254.82 417.18 254.88 412.5 255C407.94 255.12 403.38 255.18 398.82 255.18C398.46 253.38 398.46 251.46 398.82 249.42C404.7 248.82 408.78 248.28 411.06 247.8C413.34 247.2 414.48 245.76 414.48 243.48C414.48 242.52 414.3 241.44 413.94 240.24C413.58 239.04 413.1 237.54 412.5 235.74L402.24 208.02H361.74L352.74 232.86C351.9 235.14 351.24 237.06 350.76 238.62C350.4 240.06 350.22 241.38 350.22 242.58C350.22 245.22 351.42 246.9 353.82 247.62C356.34 248.22 360.42 248.82 366.06 249.42C366.3 251.46 366.3 253.38 366.06 255.18C361.98 255.18 357.96 255.12 354 255C350.04 254.88 346.02 254.82 341.94 254.82C338.58 254.82 335.34 254.88 332.22 255C329.1 255.12 325.74 255.18 322.14 255.18ZM364.44 200.46H399.54L381.9 152.58L364.44 200.46Z" fill="white"/>
<path d="M483.008 129.18C486.728 129.18 490.988 129.12 495.788 129C500.588 128.88 504.548 128.82 507.668 128.82C531.308 128.82 549.188 133.86 561.308 143.94C573.428 154.02 579.488 168.72 579.488 188.04C579.488 202.2 576.368 214.32 570.128 224.4C564.008 234.36 555.488 241.98 544.568 247.26C533.648 252.54 521.108 255.18 506.948 255.18C505.268 255.18 502.928 255.12 499.928 255C496.928 255 493.868 255 490.748 255C487.628 254.88 484.988 254.82 482.828 254.82C480.908 254.82 478.208 254.88 474.728 255C471.248 255 467.708 255 464.108 255C460.508 255.12 457.508 255.18 455.108 255.18C454.868 253.38 454.868 251.46 455.108 249.42C460.748 248.82 464.768 248.28 467.168 247.8C469.568 247.2 471.068 246 471.668 244.2C472.268 242.4 472.568 239.34 472.568 235.02V151.32C472.568 146.28 472.268 142.68 471.668 140.52C471.068 138.36 469.508 136.98 466.988 136.38C464.588 135.66 460.628 135.06 455.108 134.58C454.868 132.78 454.868 130.86 455.108 128.82C457.628 128.82 460.628 128.88 464.108 129C467.588 129 471.008 129.06 474.368 129.18C477.848 129.18 480.728 129.18 483.008 129.18ZM492.368 137.1V232.68C492.368 235.68 492.368 238.2 492.368 240.24C492.368 242.28 492.428 243.96 492.548 245.28C498.308 246.96 504.248 247.8 510.368 247.8C520.808 247.8 529.508 245.34 536.468 240.42C543.548 235.5 548.828 228.78 552.308 220.26C555.908 211.74 557.708 202.08 557.708 191.28C557.708 174.48 553.388 161.1 544.748 151.14C536.228 141.18 523.568 136.2 506.768 136.2C503.768 136.2 500.888 136.32 498.128 136.56C495.488 136.8 493.568 136.98 492.368 137.1Z" fill="white"/>
<path d="M594.503 255.18C594.263 253.38 594.263 251.46 594.503 249.42C600.143 248.82 604.163 248.28 606.562 247.8C608.963 247.2 610.463 246 611.062 244.2C611.663 242.28 611.962 239.22 611.962 235.02V151.32C611.962 146.28 611.663 142.68 611.062 140.52C610.463 138.36 608.903 136.98 606.383 136.38C603.983 135.66 600.023 135.06 594.503 134.58C594.263 132.78 594.263 130.86 594.503 128.82C597.023 128.82 599.962 128.88 603.322 129C606.802 129 610.222 129.06 613.582 129.18C616.942 129.18 619.702 129.18 621.862 129.18C624.142 129.18 626.962 129.18 630.322 129.18C633.802 129.06 637.282 129 640.762 129C644.362 128.88 647.302 128.82 649.582 128.82C649.942 130.62 649.942 132.54 649.582 134.58C643.942 135.06 639.862 135.6 637.342 136.2C634.822 136.8 633.263 138 632.663 139.8C632.063 141.6 631.762 144.66 631.762 148.98V232.68C631.762 236.76 631.762 240.06 631.762 242.58C631.882 244.98 632.002 246.6 632.122 247.44H657.682C667.642 247.44 675.023 245.22 679.823 240.78C683.783 236.94 687.922 230.22 692.242 220.62C694.162 220.26 696.023 220.26 697.823 220.62C696.383 227.94 695.183 234.54 694.223 240.42C693.383 246.18 692.662 251.04 692.062 255C680.422 255 668.782 255 657.142 255C645.622 254.88 634.042 254.82 622.402 254.82C620.122 254.82 617.242 254.88 613.762 255C610.282 255 606.802 255 603.322 255C599.842 255.12 596.903 255.18 594.503 255.18Z" fill="white"/>
<path d="M705.069 255.18C704.829 253.38 704.829 251.46 705.069 249.42C710.709 248.82 714.729 248.28 717.129 247.8C719.529 247.2 721.029 246 721.629 244.2C722.229 242.28 722.529 239.22 722.529 235.02V151.32C722.529 146.28 722.229 142.68 721.629 140.52C721.029 138.36 719.469 136.98 716.949 136.38C714.549 135.66 710.589 135.06 705.069 134.58C704.829 132.78 704.829 130.86 705.069 128.82C708.189 128.82 710.889 128.88 713.169 129C715.569 129 717.969 129 720.369 129C722.769 129 725.649 129.06 729.009 129.18C732.369 129.18 736.629 129.18 741.789 129.18C751.269 129.18 760.149 129.18 768.429 129.18C776.709 129.06 783.609 129 789.129 129C794.649 128.88 797.889 128.82 798.849 128.82C799.329 133.26 799.869 137.82 800.469 142.5C801.189 147.18 801.969 152.16 802.809 157.44C800.769 157.68 798.789 157.68 796.869 157.44C795.429 153.84 793.749 150.66 791.829 147.9C789.909 145.14 787.929 143.04 785.889 141.6C783.609 139.92 780.849 138.66 777.609 137.82C774.489 136.98 770.589 136.56 765.909 136.56H742.329V185.7H752.229C757.989 185.7 762.369 185.34 765.369 184.62C768.369 183.78 770.589 182.04 772.029 179.4C773.469 176.64 774.609 172.32 775.449 166.44C777.609 166.08 779.649 166.08 781.569 166.44C781.449 173.64 781.329 178.92 781.209 182.28C781.209 185.64 781.209 188.16 781.209 189.84C781.209 191.76 781.209 194.7 781.209 198.66C781.329 202.5 781.449 207.48 781.569 213.6C779.769 213.96 777.729 213.96 775.449 213.6C774.729 207.24 773.649 202.68 772.209 199.92C770.769 197.16 768.609 195.42 765.729 194.7C762.969 193.98 759.009 193.62 753.849 193.62H742.329V232.68C742.329 236.76 742.329 240.06 742.329 242.58C742.449 244.98 742.569 246.54 742.689 247.26H767.349C773.349 247.26 778.149 246.78 781.749 245.82C785.469 244.74 788.529 243.18 790.929 241.14C792.609 239.82 794.589 237.54 796.869 234.3C799.149 230.94 801.309 227.1 803.349 222.78C805.269 222.54 807.129 222.54 808.929 222.78C807.729 229.5 806.709 235.56 805.869 240.96C805.029 246.36 804.309 251.04 803.709 255C798.309 255 792.429 255 786.069 255C779.709 255 773.349 255 766.989 255C760.629 254.88 754.809 254.82 749.529 254.82C744.369 254.82 740.229 254.82 737.109 254.82C731.469 254.82 726.849 254.88 723.249 255C719.769 255 716.649 255 713.889 255C711.249 255.12 708.309 255.18 705.069 255.18Z" fill="white"/>
<path d="M862.146 198.12L857.466 197.58V232.68C857.466 236.4 857.586 239.34 857.826 241.5C858.066 243.66 858.666 245.22 859.626 246.18C860.706 247.14 862.386 247.86 864.666 248.34C867.066 248.7 870.366 249.06 874.566 249.42C874.926 251.34 874.926 253.26 874.566 255.18C872.166 255.18 869.286 255.12 865.926 255C862.566 255 859.206 255 855.846 255C852.486 254.88 849.666 254.82 847.386 254.82C845.226 254.82 842.406 254.88 838.926 255C835.446 255 831.966 255 828.486 255C825.006 255.12 822.066 255.18 819.666 255.18C819.306 253.38 819.306 251.46 819.666 249.42C825.426 248.94 829.566 248.46 832.086 247.98C834.606 247.38 836.166 246.18 836.766 244.38C837.366 242.46 837.666 239.34 837.666 235.02V151.14C837.666 146.22 837.306 142.68 836.586 140.52C835.986 138.36 834.426 136.92 831.906 136.2C829.386 135.48 825.306 134.94 819.666 134.58C819.306 132.78 819.306 130.86 819.666 128.82C821.946 128.82 824.886 128.88 828.486 129C832.206 129 835.806 129.06 839.286 129.18C842.886 129.18 845.526 129.18 847.206 129.18C849.366 129.18 852.126 129.18 855.486 129.18C858.966 129.06 862.386 128.94 865.746 128.82C869.226 128.7 871.926 128.64 873.846 128.64C881.406 128.64 888.426 129.66 894.906 131.7C901.506 133.74 906.786 137.1 910.746 141.78C914.826 146.34 916.866 152.52 916.866 160.32C916.866 168 914.526 174.84 909.846 180.84C905.286 186.84 898.026 191.34 888.066 194.34V194.88C889.866 196.32 891.906 198.72 894.186 202.08L913.086 229.44C916.206 233.88 918.786 237.36 920.826 239.88C922.986 242.4 925.026 244.32 926.946 245.64C928.866 246.84 931.086 247.68 933.606 248.16C936.126 248.64 939.306 249.06 943.146 249.42C943.506 251.34 943.506 253.26 943.146 255.18C940.866 255.18 938.046 255.12 934.686 255C931.326 255 928.086 255 924.966 255C921.846 254.88 919.326 254.82 917.406 254.82C915.486 254.82 913.806 254.88 912.366 255C910.926 255 909.246 255 907.326 255L874.026 205.86C871.986 202.74 870.186 200.76 868.626 199.92C867.066 198.96 864.906 198.36 862.146 198.12ZM857.466 190.2C859.026 190.44 860.406 190.62 861.606 190.74C862.806 190.86 863.946 190.92 865.026 190.92C874.386 190.92 881.766 188.52 887.166 183.72C892.686 178.92 895.446 171.84 895.446 162.48C895.446 153.96 893.046 147.42 888.246 142.86C883.566 138.3 876.606 136.02 867.366 136.02C866.166 136.02 864.666 136.08 862.866 136.2C861.186 136.32 859.386 136.5 857.466 136.74V190.2Z" fill="white"/>
<path d="M322 41.5369H347.026V46.1307H327.029V59.1364H345.589V63.6108H327.029V77.6307H347.624V82.2244H322V41.5369Z" fill="white"/>
<path d="M356.931 41.5369H363.337L372.557 65.7585C373.076 67.1506 373.555 68.4432 373.994 69.6364C374.433 70.7898 374.812 71.8239 375.132 72.7386C375.531 73.7727 375.87 74.7273 376.149 75.6023H376.269C376.509 74.7273 376.808 73.7727 377.167 72.7386C377.487 71.8239 377.846 70.7898 378.245 69.6364C378.644 68.4432 379.123 67.1506 379.682 65.7585L389.081 41.5369H395.487L397.583 82.2244H392.494L391.476 59.8523C391.396 57.9034 391.336 56.2528 391.296 54.9006C391.257 53.5483 391.237 52.4347 391.237 51.5597V49.054H391.117C390.877 49.6506 390.578 50.4659 390.219 51.5C389.9 52.375 389.48 53.5085 388.962 54.9006C388.483 56.2528 387.884 57.9034 387.165 59.8523L378.724 82.2244H373.635L365.133 59.8523C364.375 57.9432 363.756 56.3125 363.277 54.9602C362.798 53.5682 362.399 52.4347 362.08 51.5597C361.721 50.5256 361.441 49.6903 361.242 49.054H361.122C361.162 49.6903 361.202 50.5256 361.242 51.5597C361.282 53.2301 361.222 55.9943 361.062 59.8523L359.865 82.2244H354.776L356.931 41.5369Z" fill="white"/>
<path d="M407.186 41.5369H416.585C421.774 41.5369 425.606 42.4517 428.08 44.2813C430.595 46.1108 431.852 49.1932 431.852 53.5284C431.852 55.9148 431.393 57.9034 430.475 59.4943C429.557 61.0852 428.4 62.3778 427.003 63.3722C425.646 64.3267 424.169 65.0227 422.572 65.4602C420.976 65.858 419.499 66.0568 418.142 66.0568H412.215V82.2244H407.186V41.5369ZM412.215 61.5824H417.723C419.08 61.5824 420.297 61.4631 421.375 61.2244C422.493 60.946 423.45 60.5085 424.249 59.9119C425.047 59.2756 425.666 58.4403 426.105 57.4062C426.544 56.3324 426.763 55 426.763 53.4091C426.763 51.8182 426.524 50.5455 426.045 49.5909C425.606 48.5966 424.927 47.8409 424.009 47.3239C423.131 46.8068 422.014 46.4687 420.657 46.3097C419.3 46.1108 417.723 46.0114 415.927 46.0114H412.215V61.5824Z" fill="white"/>
<path d="M439.518 41.5369H449.576C451.771 41.5369 453.767 41.7358 455.563 42.1335C457.399 42.4915 458.956 43.1278 460.233 44.0426C461.51 44.9176 462.488 46.0909 463.166 47.5625C463.845 49.0341 464.184 50.8835 464.184 53.1108C464.144 55.5767 463.725 57.5852 462.927 59.1364C462.129 60.6477 461.151 61.8807 459.993 62.8352C458.836 63.75 457.499 64.4261 455.982 64.8636V64.983C456.142 65.142 456.381 65.4403 456.701 65.8778C457.06 66.2756 457.359 66.6335 457.599 66.9517L469.153 82.2244H463.226L451.372 66.0568H444.547V82.2244H439.518V41.5369ZM459.095 53.946C459.095 52.2756 458.876 50.9233 458.437 49.8892C458.038 48.8153 457.419 48 456.581 47.4432C455.783 46.8864 454.785 46.5085 453.587 46.3097C452.39 46.1108 451.033 46.0114 449.516 46.0114H444.547V61.5824H450.474C452.031 61.5824 453.348 61.3835 454.425 60.9858C455.503 60.5881 456.381 60.0511 457.06 59.375C457.738 58.6591 458.237 57.8437 458.556 56.929C458.876 56.0142 459.055 55.0199 459.095 53.946Z" fill="white"/>
<path d="M474.189 41.5369H499.214V46.1307H479.218V59.1364H497.777V63.6108H479.218V77.6307H499.813V82.2244H474.189V41.5369Z" fill="white"/>
<path d="M528.877 47.1449C527.919 46.9063 526.921 46.6875 525.883 46.4886C524.965 46.2898 523.908 46.1307 522.71 46.0114C521.553 45.8523 520.335 45.7727 519.058 45.7727C516.105 45.7727 513.989 46.2301 512.712 47.1449C511.435 48.0199 510.796 49.392 510.796 51.2614C510.836 52.733 511.375 53.9858 512.413 55.0199C513.45 56.0142 514.748 56.9489 516.304 57.8239C517.861 58.6591 519.557 59.4943 521.393 60.3295C523.269 61.125 524.985 62.0597 526.542 63.1335C528.099 64.1676 529.396 65.4006 530.433 66.8324C531.511 68.2244 532.05 69.9347 532.05 71.9631C532.05 74.3097 531.531 76.1989 530.493 77.6307C529.496 79.0625 528.218 80.1761 526.662 80.9716C525.105 81.767 523.389 82.304 521.513 82.5824C519.677 82.8608 517.921 83 516.244 83C514.648 83 513.191 82.9006 511.874 82.7017C510.557 82.5028 509.419 82.2841 508.461 82.0455C507.344 81.767 506.326 81.4489 505.408 81.0909L506.605 76.2585C507.523 76.6562 508.501 76.9943 509.539 77.2727C510.457 77.5114 511.475 77.7301 512.592 77.929C513.75 78.1278 514.967 78.2273 516.244 78.2273C517.801 78.2273 519.218 78.1278 520.495 77.929C521.812 77.7301 522.95 77.4119 523.908 76.9744C524.866 76.5369 525.604 75.9602 526.123 75.2443C526.682 74.5284 526.961 73.6534 526.961 72.6193C526.921 71.0682 526.402 69.8153 525.404 68.8608C524.446 67.8665 523.149 66.9318 521.513 66.0568C519.916 65.142 518.18 64.267 516.304 63.4318C514.468 62.5966 512.772 61.642 511.215 60.5682C509.659 59.4943 508.341 58.2216 507.264 56.75C506.226 55.2784 505.707 53.4489 505.707 51.2614C505.707 49.9886 505.927 48.7358 506.366 47.5028C506.805 46.2699 507.543 45.1761 508.581 44.2216C509.659 43.267 511.036 42.4915 512.712 41.8949C514.428 41.2983 516.544 41 519.058 41C520.495 41 521.852 41.0795 523.129 41.2386C524.446 41.358 525.584 41.4972 526.542 41.6563C527.66 41.8551 528.717 42.0739 529.715 42.3125L528.877 47.1449Z" fill="white"/>
<path d="M549.374 41.5369H555.601L569.61 82.2244H564.402L560.809 71.3665H544.226L540.573 82.2244H535.365L549.374 41.5369ZM559.193 66.5938L552.607 46.3097H552.428L545.782 66.5938H559.193Z" fill="white"/>
<path d="M597.286 46.1903H584.474V41.5369H615.127V46.1903H602.315V82.2244H597.286V46.1903Z" fill="white"/>
<path d="M621.408 41.5369H646.433V46.1307H626.437V59.1364H644.996V63.6108H626.437V77.6307H647.032V82.2244H621.408V41.5369Z" fill="white"/>
<path d="M662.924 61.5227L651.13 41.5369H656.818L666.457 58.0625L676.036 41.5369H681.724L669.63 62L681.783 82.2244H675.976L666.157 65.2216L656.818 82.2244H651.13L662.924 61.5227Z" fill="white"/>
<path d="M696.738 46.1903H683.926V41.5369H714.579V46.1903H701.767V82.2244H696.738V46.1903Z" fill="white"/>
<path d="M720.859 41.5369H725.888V82.2244H720.859V41.5369Z" fill="white"/>
<path d="M736.411 41.5369H741.44V77.4517H760V82.2244H736.411V41.5369Z" fill="white"/>
<path d="M365.238 319.138C364.371 318.919 363.468 318.719 362.529 318.536C361.698 318.354 360.741 318.208 359.658 318.099C358.61 317.953 357.509 317.88 356.353 317.88C353.68 317.88 351.766 318.299 350.61 319.138C349.454 319.94 348.876 321.197 348.876 322.911C348.912 324.259 349.4 325.408 350.339 326.355C351.278 327.267 352.452 328.123 353.861 328.925C355.269 329.691 356.804 330.456 358.466 331.222C360.163 331.951 361.716 332.808 363.125 333.792C364.534 334.74 365.708 335.87 366.647 337.182C367.622 338.458 368.109 340.025 368.109 341.884C368.109 344.035 367.64 345.767 366.701 347.079C365.798 348.391 364.642 349.412 363.233 350.141C361.825 350.87 360.272 351.362 358.574 351.617C356.913 351.872 355.323 352 353.806 352C352.362 352 351.043 351.909 349.851 351.727C348.659 351.544 347.63 351.344 346.763 351.125C345.752 350.87 344.831 350.578 344 350.25L345.084 345.821C345.914 346.186 346.799 346.496 347.738 346.751C348.569 346.97 349.49 347.17 350.501 347.352C351.549 347.535 352.651 347.626 353.806 347.626C355.215 347.626 356.497 347.535 357.653 347.352C358.845 347.17 359.874 346.878 360.741 346.477C361.608 346.076 362.276 345.548 362.746 344.892C363.251 344.236 363.504 343.434 363.504 342.486C363.468 341.064 362.999 339.916 362.096 339.041C361.229 338.13 360.055 337.273 358.574 336.471C357.129 335.633 355.558 334.831 353.861 334.065C352.199 333.3 350.664 332.425 349.255 331.441C347.847 330.456 346.655 329.29 345.68 327.941C344.74 326.592 344.271 324.916 344.271 322.911C344.271 321.744 344.47 320.596 344.867 319.466C345.264 318.336 345.932 317.333 346.871 316.458C347.847 315.584 349.093 314.873 350.61 314.326C352.163 313.779 354.077 313.506 356.353 313.506C357.653 313.506 358.881 313.579 360.037 313.724C361.229 313.834 362.258 313.961 363.125 314.107C364.136 314.29 365.094 314.49 365.997 314.709L365.238 319.138Z" fill="white"/>
<path d="M374.848 313.998H397.494V318.208H379.399V330.128H396.194V334.229H379.399V347.079H398.036V351.289H374.848V313.998Z" fill="white"/>
<path d="M405.429 313.998H414.531C416.517 313.998 418.323 314.18 419.949 314.545C421.61 314.873 423.019 315.456 424.175 316.294C425.33 317.096 426.215 318.172 426.829 319.521C427.443 320.869 427.75 322.564 427.75 324.606C427.714 326.866 427.335 328.707 426.613 330.128C425.89 331.513 425.005 332.644 423.958 333.518C422.91 334.357 421.7 334.977 420.328 335.377V335.487C420.472 335.633 420.689 335.906 420.978 336.307C421.303 336.672 421.574 337 421.791 337.291L432.247 351.289H426.884L416.156 336.471H409.98V351.289H405.429V313.998ZM423.145 325.371C423.145 323.84 422.947 322.601 422.549 321.653C422.188 320.669 421.628 319.921 420.87 319.411C420.147 318.901 419.244 318.555 418.161 318.372C417.077 318.19 415.849 318.099 414.477 318.099H409.98V332.37H415.343C416.752 332.37 417.944 332.188 418.919 331.823C419.894 331.459 420.689 330.967 421.303 330.347C421.917 329.691 422.369 328.944 422.658 328.105C422.947 327.267 423.109 326.355 423.145 325.371Z" fill="white"/>
<path d="M432.641 313.998H437.246L447.865 346.915H447.919L458.376 313.998H462.981L450.682 351.289H444.939L432.641 313.998Z" fill="white"/>
<path d="M468.708 313.998H473.259V351.289H468.708V313.998Z" fill="white"/>
<path d="M507.92 319.247C507.017 318.955 506.06 318.7 505.049 318.482C504.038 318.226 502.918 318.026 501.69 317.88C500.498 317.698 499.234 317.607 497.897 317.607C495.73 317.607 493.888 318.081 492.371 319.028C490.854 319.976 489.608 321.197 488.633 322.692C487.694 324.15 487.007 325.79 486.574 327.613C486.141 329.436 485.924 331.24 485.924 333.026C485.924 335.286 486.231 337.346 486.845 339.205C487.495 341.028 488.362 342.595 489.445 343.907C490.565 345.183 491.847 346.168 493.292 346.86C494.773 347.553 496.326 347.899 497.951 347.899C499.468 347.899 500.859 347.826 502.123 347.68C503.387 347.498 504.471 347.316 505.374 347.134C506.421 346.915 507.361 346.66 508.191 346.368L509.112 350.25C508.137 350.578 507.053 350.87 505.862 351.125C504.85 351.344 503.676 351.544 502.34 351.727C501.004 351.909 499.541 352 497.951 352C495.098 352 492.588 351.526 490.421 350.578C488.29 349.631 486.502 348.318 485.057 346.641C483.648 344.928 482.583 342.923 481.86 340.627C481.138 338.294 480.777 335.742 480.777 332.972C480.777 329.8 481.21 327.012 482.077 324.606C482.944 322.163 484.136 320.122 485.653 318.482C487.17 316.841 488.976 315.602 491.071 314.763C493.166 313.925 495.459 313.506 497.951 313.506C499.468 313.506 500.877 313.597 502.177 313.779C503.514 313.925 504.724 314.125 505.807 314.381C506.927 314.636 507.956 314.909 508.896 315.201L507.92 319.247Z" fill="white"/>
<path d="M515.691 313.998H520.242V351.289H515.691V313.998Z" fill="white"/>
<path d="M527.76 332.644C527.76 329.108 528.302 326.118 529.385 323.676C530.505 321.234 531.914 319.265 533.611 317.771C535.345 316.276 537.259 315.201 539.354 314.545C541.485 313.852 543.562 313.506 545.585 313.506C547.607 313.506 549.666 313.797 551.761 314.381C553.892 314.927 555.806 315.93 557.504 317.388C559.238 318.81 560.646 320.76 561.73 323.239C562.85 325.717 563.409 328.871 563.409 332.698C563.409 336.271 562.85 339.278 561.73 341.72C560.646 344.163 559.238 346.149 557.504 347.68C555.806 349.211 553.892 350.323 551.761 351.016C549.666 351.672 547.607 352 545.585 352C543.562 352 541.485 351.672 539.354 351.016C537.259 350.36 535.345 349.284 533.611 347.79C531.914 346.295 530.505 344.308 529.385 341.83C528.302 339.351 527.76 336.289 527.76 332.644ZM558.262 332.917C558.262 327.996 557.125 324.259 554.849 321.708C552.61 319.156 549.594 317.88 545.801 317.88C543.887 317.88 542.135 318.19 540.546 318.81C538.993 319.393 537.638 320.286 536.483 321.489C535.363 322.692 534.478 324.205 533.828 326.027C533.214 327.814 532.907 329.928 532.907 332.37C532.907 337.291 534.027 341.064 536.266 343.689C538.541 346.313 541.575 347.626 545.368 347.626C547.246 347.626 548.98 347.334 550.569 346.751C552.158 346.131 553.513 345.202 554.632 343.962C555.788 342.723 556.673 341.192 557.287 339.369C557.937 337.546 558.262 335.396 558.262 332.917Z" fill="white"/>
<path d="M591.002 337.729L579.191 313.998H584.229L593.277 332.097L602.379 313.998H607.418L595.607 337.729V351.289H591.002V337.729Z" fill="white"/>
<path d="M650.351 319.247C649.448 318.955 648.491 318.7 647.479 318.482C646.468 318.226 645.348 318.026 644.12 317.88C642.928 317.698 641.664 317.607 640.328 317.607C638.161 317.607 636.319 318.081 634.802 319.028C633.285 319.976 632.038 321.197 631.063 322.692C630.124 324.15 629.438 325.79 629.004 327.613C628.571 329.436 628.354 331.24 628.354 333.026C628.354 335.286 628.661 337.346 629.275 339.205C629.925 341.028 630.792 342.595 631.876 343.907C632.996 345.183 634.278 346.168 635.723 346.86C637.203 347.553 638.757 347.899 640.382 347.899C641.899 347.899 643.29 347.826 644.554 347.68C645.818 347.498 646.901 347.316 647.804 347.134C648.852 346.915 649.791 346.66 650.622 346.368L651.543 350.25C650.568 350.578 649.484 350.87 648.292 351.125C647.281 351.344 646.107 351.544 644.77 351.727C643.434 351.909 641.971 352 640.382 352C637.529 352 635.018 351.526 632.851 350.578C630.72 349.631 628.932 348.318 627.487 346.641C626.079 344.928 625.013 342.923 624.291 340.627C623.569 338.294 623.207 335.742 623.207 332.972C623.207 329.8 623.641 327.012 624.508 324.606C625.374 322.163 626.566 320.122 628.083 318.482C629.6 316.841 631.406 315.602 633.501 314.763C635.596 313.925 637.89 313.506 640.382 313.506C641.899 313.506 643.308 313.597 644.608 313.779C645.944 313.925 647.154 314.125 648.238 314.381C649.358 314.636 650.387 314.909 651.326 315.201L650.351 319.247Z" fill="white"/>
<path d="M655.111 332.644C655.111 329.108 655.653 326.118 656.737 323.676C657.856 321.234 659.265 319.265 660.963 317.771C662.696 316.276 664.611 315.201 666.706 314.545C668.837 313.852 670.913 313.506 672.936 313.506C674.959 313.506 677.018 313.797 679.112 314.381C681.243 314.927 683.158 315.93 684.855 317.388C686.589 318.81 687.998 320.76 689.081 323.239C690.201 325.717 690.761 328.871 690.761 332.698C690.761 336.271 690.201 339.278 689.081 341.72C687.998 344.163 686.589 346.149 684.855 347.68C683.158 349.211 681.243 350.323 679.112 351.016C677.018 351.672 674.959 352 672.936 352C670.913 352 668.837 351.672 666.706 351.016C664.611 350.36 662.696 349.284 660.963 347.79C659.265 346.295 657.856 344.308 656.737 341.83C655.653 339.351 655.111 336.289 655.111 332.644ZM685.614 332.917C685.614 327.996 684.476 324.259 682.201 321.708C679.961 319.156 676.945 317.88 673.153 317.88C671.239 317.88 669.487 318.19 667.897 318.81C666.344 319.393 664.99 320.286 663.834 321.489C662.714 322.692 661.829 324.205 661.179 326.027C660.565 327.814 660.258 329.928 660.258 332.37C660.258 337.291 661.378 341.064 663.617 343.689C665.893 346.313 668.927 347.626 672.719 347.626C674.598 347.626 676.331 347.334 677.921 346.751C679.51 346.131 680.864 345.202 681.984 343.962C683.14 342.723 684.025 341.192 684.639 339.369C685.289 337.546 685.614 335.396 685.614 332.917Z" fill="white"/>
<path d="M698.279 313.998H702.613L722.009 343.579H722.118C722.045 342.522 721.991 341.392 721.955 340.189C721.883 339.169 721.829 338.002 721.793 336.69C721.793 335.341 721.793 333.974 721.793 332.589V313.998H726.127V351.289H721.793L702.397 321.598H702.288C702.324 322.692 702.379 323.84 702.451 325.043C702.487 326.1 702.523 327.285 702.559 328.597C702.595 329.91 702.613 331.258 702.613 332.644V351.289H698.279V313.998Z" fill="white"/>
<path d="M735.686 313.998H758.332V318.208H740.237V330.128H757.032V334.229H740.237V351.289H735.686V313.998Z" fill="white"/>
<path d="M764.997 313.998H787.644V318.208H769.548V330.128H786.343V334.229H769.548V347.079H788.185V351.289H764.997V313.998Z" fill="white"/>
<path d="M820.241 319.247C819.338 318.955 818.381 318.7 817.369 318.482C816.358 318.226 815.238 318.026 814.01 317.88C812.819 317.698 811.554 317.607 810.218 317.607C808.051 317.607 806.209 318.081 804.692 319.028C803.175 319.976 801.929 321.197 800.953 322.692C800.014 324.15 799.328 325.79 798.895 327.613C798.461 329.436 798.244 331.24 798.244 333.026C798.244 335.286 798.551 337.346 799.165 339.205C799.816 341.028 800.682 342.595 801.766 343.907C802.886 345.183 804.168 346.168 805.613 346.86C807.094 347.553 808.647 347.899 810.272 347.899C811.789 347.899 813.18 347.826 814.444 347.68C815.708 347.498 816.792 347.316 817.695 347.134C818.742 346.915 819.681 346.66 820.512 346.368L821.433 350.25C820.458 350.578 819.374 350.87 818.182 351.125C817.171 351.344 815.997 351.544 814.661 351.727C813.324 351.909 811.861 352 810.272 352C807.419 352 804.908 351.526 802.741 350.578C800.61 349.631 798.822 348.318 797.378 346.641C795.969 344.928 794.903 342.923 794.181 340.627C793.459 338.294 793.097 335.742 793.097 332.972C793.097 329.8 793.531 327.012 794.398 324.606C795.265 322.163 796.457 320.122 797.974 318.482C799.491 316.841 801.297 315.602 803.391 314.763C805.486 313.925 807.78 313.506 810.272 313.506C811.789 313.506 813.198 313.597 814.498 313.779C815.834 313.925 817.044 314.125 818.128 314.381C819.248 314.636 820.277 314.909 821.216 315.201L820.241 319.247Z" fill="white"/>
<path d="M852.145 319.247C851.242 318.955 850.285 318.7 849.273 318.482C848.262 318.226 847.142 318.026 845.914 317.88C844.723 317.698 843.458 317.607 842.122 317.607C839.955 317.607 838.113 318.081 836.596 319.028C835.079 319.976 833.833 321.197 832.857 322.692C831.918 324.15 831.232 325.79 830.799 327.613C830.365 329.436 830.148 331.24 830.148 333.026C830.148 335.286 830.455 337.346 831.069 339.205C831.72 341.028 832.586 342.595 833.67 343.907C834.79 345.183 836.072 346.168 837.517 346.86C838.998 347.553 840.551 347.899 842.176 347.899C843.693 347.899 845.084 347.826 846.348 347.68C847.612 347.498 848.696 347.316 849.599 347.134C850.646 346.915 851.585 346.66 852.416 346.368L853.337 350.25C852.362 350.578 851.278 350.87 850.086 351.125C849.075 351.344 847.901 351.544 846.565 351.727C845.228 351.909 843.765 352 842.176 352C839.323 352 836.812 351.526 834.645 350.578C832.514 349.631 830.726 348.318 829.282 346.641C827.873 344.928 826.807 342.923 826.085 340.627C825.363 338.294 825.001 335.742 825.001 332.972C825.001 329.8 825.435 327.012 826.302 324.606C827.169 322.163 828.361 320.122 829.878 318.482C831.395 316.841 833.201 315.602 835.295 314.763C837.39 313.925 839.684 313.506 842.176 313.506C843.693 313.506 845.102 313.597 846.402 313.779C847.738 313.925 848.948 314.125 850.032 314.381C851.152 314.636 852.181 314.909 853.12 315.201L852.145 319.247Z" fill="white"/>
<path d="M859.915 313.998H864.466V351.289H859.915V313.998Z" fill="white"/>
<path d="M871.984 332.644C871.984 329.108 872.526 326.118 873.61 323.676C874.73 321.234 876.138 319.265 877.836 317.771C879.57 316.276 881.484 315.201 883.579 314.545C885.71 313.852 887.787 313.506 889.809 313.506C891.832 313.506 893.891 313.797 895.986 314.381C898.117 314.927 900.031 315.93 901.729 317.388C903.462 318.81 904.871 320.76 905.954 323.239C907.074 325.717 907.634 328.871 907.634 332.698C907.634 336.271 907.074 339.278 905.954 341.72C904.871 344.163 903.462 346.149 901.729 347.68C900.031 349.211 898.117 350.323 895.986 351.016C893.891 351.672 891.832 352 889.809 352C887.787 352 885.71 351.672 883.579 351.016C881.484 350.36 879.57 349.284 877.836 347.79C876.138 346.295 874.73 344.308 873.61 341.83C872.526 339.351 871.984 336.289 871.984 332.644ZM902.487 332.917C902.487 327.996 901.349 324.259 899.074 321.708C896.834 319.156 893.818 317.88 890.026 317.88C888.112 317.88 886.36 318.19 884.771 318.81C883.218 319.393 881.863 320.286 880.707 321.489C879.588 322.692 878.703 324.205 878.053 326.027C877.438 327.814 877.131 329.928 877.131 332.37C877.131 337.291 878.251 341.064 880.491 343.689C882.766 346.313 885.8 347.626 889.593 347.626C891.471 347.626 893.204 347.334 894.794 346.751C896.383 346.131 897.737 345.202 898.857 343.962C900.013 342.723 900.898 341.192 901.512 339.369C902.162 337.546 902.487 335.396 902.487 332.917ZM893.223 300L896.04 303.335L885.746 309.295L883.904 306.835L893.223 300Z" fill="white"/>
<path d="M915.152 313.998H919.486L938.882 343.579H938.991C938.919 342.522 938.864 341.392 938.828 340.189C938.756 339.169 938.702 338.002 938.666 336.69C938.666 335.341 938.666 333.974 938.666 332.589V313.998H943V351.289H938.666L919.27 321.598H919.161C919.197 322.692 919.252 323.84 919.324 325.043C919.36 326.1 919.396 327.285 919.432 328.597C919.468 329.91 919.486 331.258 919.486 332.644V351.289H915.152V313.998Z" fill="white"/>
</svg>